<svg width="214" height="308" viewBox="0 0 214 308" fill="none" xmlns="http://www.w3.org/2000/svg">
<path fill-rule="evenodd" clip-rule="evenodd" d="M89.4995 0.352294C85.6388 1.12811 81.7251 4.35371 79.9012 8.26265L78.8697 10.473L78.7581 24.9295C78.6505 38.8166 78.6177 39.4016 77.9292 39.7703C77.2573 40.1299 77.212 40.5948 77.212 47.144C77.212 53.678 77.2599 54.175 77.9487 54.7648C78.624 55.3428 78.6855 55.8515 78.6855 60.8394C78.6855 63.8337 78.5485 66.2835 78.3812 66.2835C78.214 66.2835 77.6754 65.8547 77.184 65.3304C76.0435 64.1133 72.3235 62.043 70.3353 61.5188C68.3633 60.999 67.2468 61.4797 66.2392 63.2822C65.8259 64.0212 64.0691 68.2156 62.3347 72.6039C58.509 82.2825 53.7819 92.517 50.7077 97.776C47.246 103.699 46.8588 105.155 45.712 116.568C44.5767 127.865 44.2963 128.992 40.1247 139.04C34.905 151.613 34.5507 154.26 36.8203 163.722C37.549 166.761 38.737 172.066 39.4601 175.51C41.4977 185.217 43.8491 194.471 45.9187 200.929L47.8078 206.823L47.632 211.059C47.2773 219.609 43.8517 228.976 33.3611 250.081C25.0533 266.796 17.4612 280.432 5.60472 299.935C3.04812 304.141 0.956055 307.674 0.956055 307.786C0.956055 307.898 1.57568 307.938 2.33308 307.875C3.67954 307.763 3.78121 307.643 6.97548 302.419C18.1604 284.123 25.4887 271.059 33.7354 254.713C41.8513 238.626 44.3416 233.085 46.8448 225.54C50.8167 213.567 51.114 209.388 48.5353 201.787C46.525 195.862 43.5636 183.691 38.3329 159.854C37.1135 154.297 37.7306 151.044 41.8609 141.25C46.377 130.541 46.5899 129.717 47.9257 117.782C48.9722 108.429 49.53 104.964 49.9893 104.964C50.171 104.964 50.3198 105.207 50.3198 105.504C50.3198 106.465 52.5216 108.584 54.1779 109.216C56.4501 110.084 57.0767 109.69 55.0134 108.691C54.0707 108.235 52.7946 107.286 52.1779 106.584C50.3942 104.552 50.5913 103.604 54.3024 96.3706C56.0876 92.8912 58.2394 88.5108 59.0844 86.6368C60.355 83.8175 60.7646 83.2255 61.4561 83.2075C62.1678 83.1891 62.2061 83.1268 61.7132 82.7901C61.2056 82.4435 61.4837 81.5007 63.9619 75.1678C68.3851 63.8632 68.4584 63.7055 69.2917 63.7088C71.604 63.7184 76.7695 67.3496 78.6586 70.2937C82.5112 76.2977 83.3386 87.5456 80.7069 98.1422C79.36 103.564 78.3772 105.347 76.0169 106.649C71.5683 109.102 65.2022 107.335 59.6215 102.098C57.805 100.393 57.6219 100.571 59.0977 102.606C61.8249 106.367 66.1479 108.741 70.6617 108.957C72.581 109.049 74.0479 108.908 75.1744 108.524C76.0924 108.212 76.8436 108.083 76.8436 108.239C76.8436 108.842 74.522 111.985 73.2533 113.099C72.5191 113.743 71.2445 114.591 70.4208 114.984L68.9233 115.697L70.4819 115.524C71.3388 115.429 72.8724 114.839 73.8895 114.213C74.9062 113.587 75.7384 113.255 75.7384 113.475C75.7384 113.695 75.159 119.046 74.4509 125.366C73.1693 136.807 73.0326 140.684 73.8633 142.021C74.2859 142.701 74.2944 142.7 74.1253 141.987C74.0291 141.582 73.8387 140.534 73.7024 139.658C73.4596 138.1 73.471 138.077 74.2509 138.553C74.6885 138.821 75.1409 139.499 75.2562 140.06C75.3712 140.622 75.6161 141.174 75.8007 141.289C75.9922 141.407 76.0317 141.079 75.8928 140.526C75.6633 139.611 75.7093 139.57 76.7069 139.809C77.2886 139.949 77.9679 140.222 78.2169 140.418C78.5676 140.694 78.6914 149.32 78.7695 178.956L78.8697 217.138L79.9053 219.104C81.2926 221.738 83.6038 223.976 86.2603 225.257C88.4058 226.292 88.6073 226.317 96.7364 226.56C102.127 226.721 105.927 227.011 107.604 227.392C114.765 229.015 131.081 229.997 142.112 229.469C149.478 229.116 155.165 228.417 159.993 227.27C161.77 226.848 164.316 226.539 165.93 226.55L168.756 226.568L165.072 230.085C155.633 239.097 147.154 245.831 138.548 251.152C128.805 257.175 127.364 258.188 126.278 259.782C125.142 261.447 124.73 262.502 119.626 276.816C117.82 281.881 114.524 290.958 112.301 296.985L108.261 307.945H109.506C110.449 307.945 110.835 307.744 111.098 307.116C111.82 305.392 117.631 289.548 122.55 275.895C128.552 259.232 127.637 260.588 136.338 255.47C147.367 248.983 156.204 242.068 167.467 231.109C171.319 227.36 172.387 226.525 174.005 225.998C178.491 224.535 182.05 220.655 183.207 215.964L183.791 213.599L191.193 206.651C201.954 196.549 208.9 189.396 209.631 187.661C210.495 185.61 210.762 181.733 210.203 179.337C209.606 176.771 207.65 173.029 205.747 170.81C203.546 168.245 201.474 167.158 198.363 166.935L195.791 166.751L197.262 165.916C202.432 162.979 208.794 158.095 210.323 155.889C214.996 149.145 213.842 140.639 207.397 134.328C205.585 132.553 201.824 130.383 200.562 130.383C200.19 130.383 199.886 130.341 199.889 130.291C199.891 130.24 201.673 128.373 203.849 126.141C210.254 119.573 212.564 115.431 212.583 110.482C212.592 108.082 212.432 107.382 211.382 105.251C209.748 101.93 206.653 99.1424 202.279 97.051C198.568 95.2762 196.34 94.6492 193.746 94.6492H191.986L194.208 92.3468C199.53 86.8342 206.918 78.1344 209.471 74.3751C210.312 73.1369 211.524 71.0172 212.164 69.6645C214.887 63.9125 212.918 58.2269 207.484 56.1514C204.731 55.1 200.424 55.5056 196.893 57.149C193.639 58.6634 190.422 60.7798 187.13 63.5725C185.85 64.6581 184.715 65.5467 184.608 65.5467C184.5 65.5467 184.412 61.9096 184.412 57.4639C184.412 52.4727 184.272 49.2942 184.044 49.1535C183.812 49.0102 183.661 44.594 183.637 37.2513C183.615 30.8303 183.491 22.0955 183.36 17.8407C183.128 10.2637 183.101 10.0596 182.048 7.91416C180.627 5.02159 178.304 2.76191 175.277 1.32741L172.808 0.158157L131.917 0.101794C109.427 0.0708494 90.3394 0.183573 89.4995 0.352294ZM175.507 2.57882C177.952 3.80039 179.524 5.43455 180.787 8.06703C181.432 9.40907 181.62 10.6023 181.75 14.1568C181.879 17.6926 181.819 18.489 181.449 18.1358C181.194 17.8926 180.864 16.2017 180.712 14.3712C180.382 10.3849 179.469 8.26155 177.039 5.82873C175.101 3.88917 172.257 2.65692 168.91 2.30732C165.808 1.98314 166.607 1.44751 170.192 1.44751C172.86 1.44751 173.527 1.58934 175.507 2.57882ZM94.8754 2.16476C95.4961 2.55746 94.7855 2.75786 91.6999 3.06104C89.1687 3.30933 86.5627 4.68046 84.6243 6.78358C82.4976 9.09041 81.7475 10.9684 81.4418 14.7514C81.0892 19.1131 80.6556 19.5069 80.3425 15.749C80.0294 11.9907 80.7374 8.66493 82.3281 6.42072C83.5375 4.71472 86.608 2.72286 88.783 2.23364C90.7881 1.78274 94.2104 1.74369 94.8754 2.16476ZM112.343 13.6311C113.452 14.5027 113.562 15.2955 112.74 16.4692C111.654 18.0208 108.893 17.0837 108.893 15.1633C108.893 14.6129 110.523 12.8675 111.037 12.8675C111.222 12.8675 111.809 13.2112 112.343 13.6311ZM110.072 14.0463C108.791 15.3276 110.63 17.7088 112.013 16.5605C113.113 15.6484 112.483 13.6042 111.103 13.6042C110.779 13.6042 110.315 13.8032 110.072 14.0463ZM139.469 14.7094C139.469 15.4259 139.224 15.4462 130.465 15.4462C121.789 15.4462 120.636 15.308 121.234 14.341C121.376 14.1115 124.861 13.9726 130.465 13.9726C139.224 13.9726 139.469 13.9929 139.469 14.7094ZM177.045 67.8038V106.163L174.374 109.321C172.905 111.057 170.229 114.051 168.429 115.973C166.628 117.895 164.826 120.211 164.423 121.12C162.892 124.583 164.248 129.891 167.809 134.37C169.684 136.728 172.066 138.317 174.926 139.119L177.045 139.713V141.232C177.045 142.563 176.828 142.96 175.295 144.432C172.511 147.105 160.89 157.275 160.618 157.275C160.483 157.275 160.431 154.747 160.503 151.657C160.652 145.231 160.424 131.069 160.201 132.869C160.091 133.757 159.868 134.066 159.339 134.066C158.824 134.066 158.625 133.811 158.625 133.146C158.625 132.339 158.466 132.225 157.336 132.225C156.206 132.225 156.047 132.339 156.047 133.146V134.066H147.942H139.838V132.409C139.838 130.76 139.831 130.751 138.548 130.751C137.397 130.751 137.254 130.86 137.217 131.764C137.193 132.321 137.152 133.026 137.124 133.33C137.082 133.799 135.868 133.897 129.062 133.982C121.237 134.079 121.05 134.064 121.05 133.337C121.05 132.715 120.809 132.593 119.576 132.593C118.349 132.593 118.103 132.716 118.103 133.33C118.103 134.054 117.857 134.066 104.13 134.066H90.1567L89.9972 133.238C89.9091 132.782 89.8281 143.101 89.8163 156.17C89.8049 169.238 89.8789 179.724 89.981 179.47C90.128 179.106 97.4994 179.01 125.106 179.01C158.071 179.01 160.054 179.046 160.213 179.654C160.306 180.009 160.401 177.904 160.424 174.976L160.467 169.653L162.298 171.707C166.97 176.949 173.236 178.52 179.071 175.91C181.595 174.782 181.504 174.887 176.477 178.909C171.735 182.703 170.576 184.05 169.815 186.655C169.059 189.242 169.476 192.481 170.925 195.274L171.852 197.061H128.032H84.2113L84.1833 146.868C84.1678 119.262 84.2095 95.5149 84.2754 94.0966C84.4397 90.5712 84.4268 80.1447 84.2559 77.8876C84.1789 76.8746 84.1376 65.5607 84.1638 52.7453L84.2113 29.4448H130.628H177.045V67.8038ZM89.9813 57.5011C89.8469 65.4369 89.7371 74.6259 89.7371 77.9208C89.7371 83.3169 89.673 83.9288 89.0924 84.0806C88.1674 84.3222 90.2318 84.3359 128.694 84.3428L163.414 84.3491V85.241C163.414 85.7317 163.58 86.2352 163.783 86.3605C164.027 86.5115 164.143 79.2179 164.126 64.7395C164.108 48.7789 163.994 43.1138 163.702 43.718L163.303 44.545L127.165 44.6408L91.0265 44.7366L127.177 44.8268C161.268 44.9119 163.336 44.9539 163.463 45.5617C163.538 45.9161 163.545 54.7025 163.48 65.0862L163.361 83.966H161.546C160.089 83.966 159.716 83.8385 159.66 83.3213C159.622 82.9669 159.565 78.6152 159.534 73.6512C159.441 58.7662 159.445 58.845 158.775 58.9809C158.253 59.0867 158.181 60.4736 158.13 71.4409L158.073 83.7818H156.599H155.126L155.058 81.5715C155.021 80.3558 154.979 78.3131 154.966 77.0319C154.945 75.0186 154.854 74.7191 154.297 74.8263C153.539 74.9722 153.573 74.7545 153.514 79.9137L153.468 83.966H151.999H150.531L150.434 71.5377C150.344 60.0389 150.288 59.1007 149.692 58.9857C149.088 58.8697 149.047 59.6577 149.047 71.414V83.966H147.574H146.1V77.1508C146.1 70.5814 146.127 70.3357 146.837 70.3357C147.328 70.3357 147.574 70.09 147.574 69.5989C147.574 69.0655 147.328 68.8622 146.683 68.8622C146.194 68.8622 145.709 68.6551 145.606 68.4017C145.461 68.0421 145.35 68.0396 145.101 68.3888C144.78 68.8415 139.922 70.0845 129.523 72.3751C126.382 73.0669 122.926 73.8335 121.841 74.0785C120.757 74.3231 119.785 74.7457 119.68 75.0172C119.551 75.3528 119.122 75.4419 118.336 75.2953C117.399 75.1207 110.594 76.5526 105.946 77.9024C105.5 78.032 105.394 77.6563 105.398 75.9599L105.401 73.8567L106.871 73.4416L108.341 73.0264L108.525 74.7202C108.653 75.8983 108.877 76.4141 109.262 76.4141C109.672 76.4141 109.844 75.8928 109.929 74.3902C110.001 73.11 110.238 72.2572 110.573 72.0693C111.33 71.6457 111.231 71.1727 110.249 70.5295C109.463 70.0145 109.137 70.0561 106.207 71.0467C102.414 72.3287 99.1534 74.1938 98.6064 75.3948C98.2704 76.1319 98.3061 76.2457 98.8455 76.1536C99.3711 76.0641 99.4746 76.329 99.4496 77.6964C99.4175 79.4238 99.0035 79.7763 96.8864 79.8769C96.1286 79.913 96.1161 79.7936 96.1496 72.9148C96.1828 66.1505 96.1592 65.9162 95.4471 65.9154C94.735 65.9147 94.7103 66.16 94.7103 73.1903V80.4663L92.9605 80.8045C91.3584 81.1139 91.2106 81.2315 91.2106 82.1988C91.2106 83.129 91.2957 83.2097 91.9231 82.8737C92.3151 82.6641 93.1561 82.4924 93.7923 82.4924C94.6945 82.4924 94.9218 82.6339 94.826 83.1371C94.7313 83.6355 94.2649 83.8072 92.773 83.893L90.8423 84.0047L90.7594 76.8937C90.7137 72.9829 90.6721 63.8709 90.6673 56.645C90.6621 49.4191 90.5608 43.4093 90.4418 43.2895C90.3225 43.1698 90.1154 49.565 89.9813 57.5011ZM166.158 45.0795C165.591 45.9445 165.588 46.0959 166.125 46.9152C167.049 48.325 168.13 48.4727 169.26 47.344C170.176 46.4275 170.197 46.3254 169.664 45.3709C168.862 43.9372 167.007 43.7828 166.158 45.0795ZM130.872 56.9821C130.971 72.0955 130.942 71.4409 131.51 71.4409C131.792 71.4409 132.091 71.2338 132.174 70.9804C132.257 70.7273 132.375 65.4225 132.437 59.192L132.549 47.8642L131.681 47.8645L130.812 47.8649L130.872 56.9821ZM166.158 54.2892C165.584 55.1641 165.583 55.2982 166.143 56.1528C166.9 57.3074 168.544 57.3851 169.516 56.312C170.145 55.6165 170.157 55.4636 169.653 54.5621C168.862 53.1464 167.002 53.0013 166.158 54.2892ZM113.774 57.7067C113.431 57.8297 113.314 59.4248 113.314 63.9678V70.0638L111.974 69.8465L110.635 69.6291L112.017 70.8588C113.27 71.9732 113.386 72.2325 113.253 73.6217C113.123 74.9906 113.187 75.1431 113.855 75.0477C114.407 74.9685 114.634 74.6171 114.721 73.7053C114.822 72.6536 114.959 72.4955 115.642 72.6411C116.084 72.7354 117.479 73.0338 118.743 73.3045C120.331 73.6445 121.355 73.6865 122.058 73.4401C123.329 72.9955 123.644 71.6273 122.543 71.3392C121.617 71.0972 121.574 71.3727 122.431 72.0623C123.007 72.525 122.938 72.5556 121.787 72.3482C121.078 72.2204 119.212 71.772 117.642 71.3521L114.787 70.5884V64.2212C114.787 60.7194 114.663 57.7837 114.511 57.6978C114.359 57.612 114.028 57.6161 113.774 57.7067ZM207.083 58.5031C210.133 59.8883 211.729 63.0921 210.941 66.2481C210.342 68.6485 208.396 71.9761 205.158 76.1367C199.729 83.111 188.568 95.2441 186.503 96.4137C185.657 96.8934 184.675 97.5473 184.32 97.8667C183.708 98.4181 183.676 97.9521 183.676 88.5601V78.673L185.38 80.3775C187.22 82.2176 191.174 84.4729 193.254 84.8678C194.244 85.056 193.817 84.7168 191.414 83.4064C189.693 82.4674 187.256 80.9246 185.997 79.9778L183.709 78.256L183.693 74.1525C183.673 69.4383 183.434 69.8995 187.85 66.1188C191.595 62.9131 196.52 59.7162 199.32 58.6755C202.072 57.6522 205.064 57.5855 207.083 58.5031ZM103.921 58.9146C103.796 59.1165 103.726 61.8595 103.765 65.0103C103.828 70.0598 103.906 70.7255 104.431 70.626C105.166 70.4867 105.444 67.7596 105.278 62.3233C105.189 59.4189 105.045 58.5473 104.655 58.5473C104.376 58.5473 104.046 58.7128 103.921 58.9146ZM166.533 63.1315C165.643 64.0216 165.625 64.7384 166.464 65.823C167.002 66.5189 168.48 66.3755 169.309 65.5467C170.262 64.5929 170.237 64.2315 169.141 63.1356C168.012 62.0061 167.659 62.0058 166.533 63.1315ZM126.392 64.0728C126.253 64.2975 126.258 66.2212 126.403 68.3479C126.627 71.6372 126.756 72.1972 127.266 72.0988C127.776 72.0004 127.865 71.3816 127.865 67.9412C127.865 64.471 127.779 63.8823 127.255 63.7814C126.919 63.7169 126.531 63.8481 126.392 64.0728ZM108.386 65.4734C108.272 65.6579 108.281 66.6692 108.405 67.7205C108.581 69.2077 108.763 69.607 109.223 69.5186C110.097 69.3503 110.079 65.4236 109.204 65.2549C108.868 65.1905 108.5 65.2884 108.386 65.4734ZM68.5534 69.712C68.5516 73.9459 67.9846 75.5999 65.0563 79.9119C64.209 81.16 63.63 82.2924 63.7696 82.4287C64.212 82.8605 66.5255 79.8393 67.9342 76.9899C69.2316 74.3651 69.2917 74.0774 69.2917 70.4672C69.2917 68.3899 69.1259 66.5251 68.9233 66.3236C68.6779 66.079 68.5545 67.2096 68.5534 69.712ZM144.543 77.4271L144.442 83.7818L143.061 83.896L141.68 84.0106V81.8515C141.68 80.6192 141.877 79.4923 142.14 79.226C142.509 78.8517 142.472 78.6642 141.956 78.2825C141.522 77.9624 141.311 77.3067 141.311 76.2815C141.311 75.0021 141.193 74.7563 140.574 74.7563C139.978 74.7563 139.838 75.0021 139.838 76.0457C139.838 77.4654 139.55 77.5819 137.666 76.925C136.54 76.5323 136.493 76.4373 136.572 74.7051C136.64 73.2102 136.787 72.8658 137.417 72.7269C137.837 72.6344 139.506 72.2428 141.127 71.8564C142.748 71.4703 144.202 71.1358 144.359 71.1134C144.516 71.0909 144.599 73.9319 144.543 77.4271ZM166.529 72.3452C165.433 73.4412 165.408 73.8026 166.361 74.7563C167.38 75.7746 168.787 75.7005 169.515 74.5902C170.25 73.4674 169.949 72.42 168.732 71.8652C167.516 71.3112 167.576 71.2983 166.529 72.3452ZM98.7475 72.2023C98.6137 72.4182 98.5846 72.6749 98.6823 72.7726C98.9626 73.0529 100.789 72.5025 100.789 72.1378C100.789 71.6729 99.0403 71.7282 98.7475 72.2023ZM135.417 74.781C135.417 76.3879 135.577 76.3249 133.207 75.6526C132.268 75.3863 132.198 73.7761 133.115 73.5366C135.067 73.0264 135.417 73.2157 135.417 74.781ZM131.365 74.7269C131.365 74.8897 130.913 74.9361 130.362 74.8307C129.471 74.6606 129.44 74.6097 130.086 74.3754C130.854 74.0966 131.365 74.2369 131.365 74.7269ZM103.874 75.5392C104.335 77.843 104.187 78.3315 102.953 78.5783C100.845 79.0001 100.789 78.9552 100.789 76.844C100.789 75.7631 100.899 74.7685 101.034 74.6337C101.169 74.4985 101.812 74.3879 102.462 74.3879C103.491 74.3879 103.674 74.5368 103.874 75.5392ZM126.337 79.4337C126.469 81.6013 126.432 83.5199 126.255 83.6971C126.078 83.8746 125.373 83.966 124.688 83.9008L123.444 83.7818L123.366 81.2031C123.241 77.0558 123.51 75.9319 124.67 75.7543C125.212 75.6714 125.754 75.5786 125.875 75.5484C125.996 75.5178 126.204 77.2665 126.337 79.4337ZM121.787 80.0979V83.966H118.287H114.787V81.2031C114.787 79.6835 114.746 78.3245 114.695 78.1834C114.614 77.9558 120.146 76.3555 121.326 76.2653C121.668 76.2391 121.787 77.2304 121.787 80.0979ZM130.499 76.715C130.559 76.7751 130.65 78.3897 130.702 80.3031L130.795 83.7818L129.422 83.896L128.049 84.0106V80.074V76.1378L129.22 76.3717C129.863 76.5006 130.439 76.655 130.499 76.715ZM134.007 77.7661L135.446 78.1971L135.339 80.9894L135.233 83.7818L133.878 83.8945L132.523 84.0072L132.404 80.6704C132.339 78.8351 132.349 77.3336 132.427 77.3343C132.505 77.3347 133.216 77.5288 134.007 77.7661ZM113.238 81.111L113.13 83.7818H111.656H110.183L110.074 81.3228C109.957 78.6568 109.971 78.6406 112.501 78.4903C113.318 78.4417 113.343 78.5282 113.238 81.111ZM139.063 79.219C140.22 79.6224 140.238 79.6655 140.131 81.7056L140.022 83.7818L138.456 83.8949L136.891 84.0083V81.4083C136.891 78.571 136.971 78.4899 139.063 79.219ZM108.529 81.6636C108.351 83.6705 108.285 83.7881 107.283 83.9026C105.909 84.0596 105.66 83.7564 105.522 81.7579C105.414 80.1845 105.462 80.0909 106.506 79.8677C108.758 79.3855 108.734 79.3637 108.529 81.6636ZM104.104 82.1292C104.104 83.4724 104.023 83.5795 102.839 83.8017C101.191 84.1108 100.789 83.8205 100.789 82.323C100.789 81.2075 100.918 81.0598 102.17 80.7467C102.93 80.5569 103.676 80.4671 103.828 80.5477C103.98 80.628 104.104 81.3398 104.104 82.1292ZM166.143 81.5715C165.584 82.4247 165.584 82.5602 166.143 83.4134C166.745 84.3318 168.257 84.6516 169.167 84.0526C170.027 83.4856 170.106 82.1848 169.327 81.4061C168.284 80.3632 166.887 80.4357 166.143 81.5715ZM99.6835 82.4759C99.6835 83.4278 99.5222 83.5947 98.3971 83.8057C96.7607 84.1126 95.9997 83.8183 95.9997 82.8792C95.9997 82.3705 96.3172 82.0681 97.0127 81.9148C97.5697 81.7918 98.1916 81.6359 98.3942 81.5682C99.3763 81.2407 99.6835 81.4569 99.6835 82.4759ZM155.432 90.1737C153.088 90.9837 151.043 92.5052 150.061 94.1688C149.527 95.0739 149.151 95.3565 148.722 95.1752C147.008 94.4495 146.579 94.556 146.337 95.7676C146.207 96.4189 146.1 97.9193 146.1 99.1019C146.1 104.772 150.369 109.798 156.599 111.463C159.329 112.192 160.467 112.122 160.467 111.227C160.467 110.701 160.713 110.49 161.323 110.49C164.678 110.49 168.819 107.255 169.832 103.842C170.151 102.769 170.362 101.843 170.302 101.783C170.242 101.723 168.544 101.578 166.528 101.46C164.511 101.343 162.163 101.162 161.308 101.058L159.753 100.87L163.096 97.8593L166.439 94.8481L165.227 93.8358C164.56 93.2792 163.306 92.531 162.441 92.1729C161.143 91.6362 160.901 91.3849 161.063 90.741C161.409 89.3603 158.604 89.0777 155.432 90.1737ZM159.859 90.5067C159.953 90.6596 159.54 93.1649 158.94 96.0745C158.341 98.9836 157.947 101.462 158.067 101.581C158.187 101.701 160.723 101.952 163.704 102.138C166.685 102.325 169.18 102.526 169.247 102.585C169.315 102.644 169.051 103.411 168.662 104.289C167.444 107.032 165.11 108.739 161.48 109.543C160.559 109.747 160.467 109.672 160.467 108.714C160.467 107.699 160.374 107.644 157.869 107.196C154.756 106.64 152.659 105.216 151.378 102.788C150.459 101.047 150.263 98.6922 150.897 97.0227C151.167 96.3121 151.151 95.8855 150.838 95.509C150.488 95.0872 150.679 94.7026 151.814 93.5396C153.463 91.8509 155.092 91.0055 157.468 90.6039C158.408 90.4452 159.292 90.2956 159.432 90.272C159.572 90.2481 159.764 90.3538 159.859 90.5067ZM163.967 94.0679C164.575 94.5538 164.989 95.0124 164.888 95.0872C164.787 95.1616 163.387 96.3784 161.777 97.7908C160.167 99.2035 158.948 100.101 159.067 99.7852C159.187 99.4695 159.569 97.8118 159.916 96.1013C160.263 94.3909 160.615 92.8769 160.699 92.7373C160.933 92.3479 162.732 93.0806 163.967 94.0679ZM97.289 95.516C95.054 96.5589 92.8717 98.8871 92.3423 100.793C91.5282 103.726 92.2926 108.275 93.751 109.177C94.3324 109.536 94.2587 109.229 93.4228 107.813C92.4005 106.08 92.1139 103.503 92.7067 101.377C93.3679 99.0057 96.2255 96.1393 98.7626 95.3023C99.7756 94.9682 100.273 94.686 99.8677 94.6753C99.4625 94.665 98.3021 95.0434 97.289 95.516ZM102.56 99.0588L102.674 103.47L104.084 104.677C104.86 105.342 106.262 106.436 107.2 107.109L108.905 108.334L109.628 106.741C110.892 103.954 110.496 100.556 108.61 98.0181C107.463 96.4742 104.635 94.6495 103.387 94.6484L102.446 94.6477L102.56 99.0588ZM135.785 96.648C135.279 97.3307 132.834 100.549 130.352 103.8C126.065 109.415 125.395 110.49 126.18 110.49C126.538 110.49 137.235 96.6639 137.366 96.0299C137.55 95.1494 136.63 95.509 135.785 96.648ZM114.446 96.725C113.046 98.5043 113.617 100.614 115.738 101.5C118.37 102.6 121.001 100.147 119.939 97.5823C119.365 96.1975 118.575 95.7543 116.68 95.7543C115.53 95.7543 115.043 95.9658 114.446 96.725ZM149.241 96.1176C149.469 96.1209 149.616 97.2747 149.61 99.0061C149.601 101.58 149.719 102.083 150.716 103.703C152.086 105.93 154.642 107.709 157.339 108.312C159.275 108.746 159.362 108.815 159.362 109.945C159.362 110.989 159.261 111.105 158.485 110.957C157.812 110.828 157.646 110.603 157.773 109.995C157.921 109.286 157.895 109.27 157.527 109.845C156.965 110.724 156.516 110.666 153.933 109.375C149.154 106.987 146.306 102.052 147.008 97.3741C147.234 95.8652 147.348 95.7061 148.062 95.898C148.503 96.0159 149.033 96.115 149.241 96.1176ZM118.534 97.1008C119.981 98.4104 118.935 100.912 116.941 100.912C115.725 100.912 114.419 99.7672 114.419 98.7014C114.419 96.8816 117.128 95.828 118.534 97.1008ZM124.087 99.0175C122.819 100.161 121.783 101.22 121.784 101.372C121.786 101.524 123.977 101.649 126.655 101.649H131.524L129.51 99.5951C128.403 98.466 127.248 97.4062 126.944 97.2408C126.548 97.0249 125.736 97.53 124.087 99.0175ZM197.22 97.3848C204.708 99.3781 210.419 105.122 210.345 110.583C210.302 113.741 208.151 117.818 204.174 122.278C199.562 127.451 196.982 129.578 194.559 130.21C191.658 130.965 189.737 131.952 186.781 134.205C182.823 137.221 182.073 137.533 178.825 137.522C173.646 137.505 169.926 134.898 167.238 129.404C165.956 126.783 165.656 123.652 166.514 121.845C166.845 121.147 169.146 118.662 171.627 116.323C174.108 113.984 177.309 110.678 178.741 108.977C181.785 105.361 182.627 104.068 180.396 106.438C178.544 108.404 178.783 107.736 180.856 105.148C183.104 102.343 185.932 99.482 187.295 98.6333C190.077 96.9008 193.693 96.4458 197.22 97.3848ZM125.839 99.8066C125.839 100.803 125.724 100.912 124.665 100.912H123.491L124.55 99.8066C125.132 99.1987 125.66 98.7014 125.724 98.7014C125.787 98.7014 125.839 99.1987 125.839 99.8066ZM128.404 99.8217L129.679 100.912H128.312C127.377 100.912 126.944 100.746 126.944 100.389C126.944 100.102 126.844 99.6047 126.72 99.2842C126.386 98.4133 126.977 98.6016 128.404 99.8217ZM53.2669 102.733C53.2669 103.699 54.5198 104.964 55.4772 104.964C56.5507 104.964 56.382 104.562 54.7338 103.194C53.4028 102.088 53.2669 102.046 53.2669 102.733ZM98.5404 106.161C97.2831 107.225 95.8239 108.468 95.2979 108.924L94.3419 109.753L95.4471 110.67C98.4653 113.175 102.32 113.295 106.227 111.005L107.919 110.013L106.803 109.055C106.189 108.527 104.679 107.225 103.447 106.161C102.215 105.098 101.121 104.227 101.017 104.227C100.912 104.227 99.7981 105.098 98.5404 106.161ZM114.653 106.096C112.709 107.625 113.688 110.762 116.313 111.413C118.484 111.952 120.741 109.452 119.954 107.382C119.19 105.374 116.424 104.703 114.653 106.096ZM118.389 106.643C119.387 107.342 119.479 109.032 118.563 109.837C117.417 110.843 116.444 110.924 115.398 110.101C112.912 108.145 115.788 104.82 118.389 106.643ZM133.441 106.833C132.146 107.851 132.062 110.162 133.289 111.021C134.643 111.97 136.704 111.764 137.63 110.588C139.768 107.869 136.195 104.666 133.441 106.833ZM136.68 107.385C138.581 109.286 135.875 112.053 133.88 110.248C132.964 109.42 133.032 108.075 134.026 107.379C135.068 106.649 135.946 106.651 136.68 107.385ZM187.359 108.298C187.359 108.526 188.238 109.568 189.313 110.614C191.201 112.452 193.927 114.172 195.832 114.727C196.697 114.979 196.675 114.913 195.472 113.652C194.267 112.387 190.02 109.278 188.188 108.319C187.588 108.005 187.359 107.999 187.359 108.298ZM50.3198 111.264C50.3198 111.425 50.9118 112.009 51.6357 112.561C53.1936 113.749 56.34 114.184 57.4337 113.362C58.0242 112.919 57.8658 112.858 56.0607 112.832C54.6763 112.812 53.4257 112.508 52.1702 111.887C51.1523 111.383 50.3198 111.103 50.3198 111.264ZM78.68 122.887L78.6855 131.416L77.4883 132.177C76.6111 132.736 76.2626 132.812 76.1845 132.464C76.126 132.202 76.4277 128.768 76.8546 124.831C77.282 120.894 77.727 116.708 77.8438 115.528C78.2821 111.097 78.6745 114.548 78.68 122.887ZM179.04 113.948C178.415 114.227 177.076 115.191 176.062 116.09C175.05 116.99 173.009 118.705 171.527 119.902C168.301 122.509 167.716 123.606 168.377 125.803C169.282 128.809 172.476 132.488 175.54 134.051C177.689 135.147 180.418 135.046 182.833 133.782C187.408 131.389 190.824 127.094 190.809 123.756C190.786 118.445 183.175 112.103 179.04 113.948ZM184.289 115.856C187.198 117.545 189.67 121.192 189.67 123.795C189.67 127.692 183.073 133.704 178.807 133.695C175.294 133.687 170.512 129.42 169.307 125.22C168.925 123.886 169.474 123.04 172.071 120.957C173.287 119.982 175.276 118.331 176.492 117.287C177.708 116.244 179.034 115.198 179.439 114.964C180.421 114.397 182.404 114.762 184.289 115.856ZM91.2106 122.647V123.752H120.313H149.416V122.647V121.541H120.313H91.2106V122.647ZM91.2106 126.33V127.436H114.419H137.627V126.33V125.225H114.419H91.2106V126.33ZM202.284 132.993C204.485 134.015 208.314 137.709 209.419 139.876C212.151 145.229 211.617 151.06 208.022 155.154C206.1 157.343 197.689 163.138 189.284 168.065C188.072 168.775 186.604 169.652 186.023 170.014C185.441 170.376 185.131 170.499 185.333 170.287C185.536 170.075 188.134 168.309 191.107 166.363C194.079 164.416 196.633 162.627 196.781 162.387C197.096 161.877 197.405 161.701 191.964 165.141C185.049 169.514 177.673 173.935 176.422 174.457C175.764 174.732 174.249 174.957 173.054 174.957C170.192 174.957 166.214 173.045 164.386 170.791C162.14 168.02 161.418 166.216 161.403 163.328C161.383 159.831 162.085 158.833 168.365 153.42C171.111 151.052 176.333 146.406 179.968 143.093C188.883 134.971 191.429 133.132 194.998 132.235C197.088 131.71 200.227 132.036 202.284 132.993ZM162.028 132.653C161.401 133.28 161.454 135.72 162.107 136.262C163.488 137.408 165.013 135.439 164.307 133.422C163.919 132.315 162.758 131.923 162.028 132.653ZM163.414 134.487C163.414 135.215 163.254 135.548 162.954 135.448C162.411 135.267 162.158 134.254 162.459 133.469C162.794 132.597 163.414 133.258 163.414 134.487ZM118.103 145.855C118.103 153.223 117.972 157.275 117.734 157.275C117.498 157.275 117.366 153.714 117.366 147.328V137.382H115.893H114.419L114.428 139.684C114.433 140.951 114.345 147.416 114.232 154.051C114.12 160.687 114.114 166.116 114.219 166.116C114.323 166.116 114.857 165.411 115.406 164.55C115.954 163.69 116.652 162.777 116.957 162.523C117.387 162.164 117.412 161.963 117.07 161.62C116.381 160.931 116.552 159.194 117.392 158.354C117.948 157.798 118.522 157.623 119.51 157.708L120.866 157.825L120.963 146.13L121.06 134.435H128.975H136.891V152.67C136.891 164.581 136.763 170.905 136.522 170.905C136.283 170.905 136.154 165.809 136.154 156.354V141.803H134.693H133.232L133.127 145.579C133.07 147.656 133.069 153.854 133.126 159.353C133.225 168.945 133.259 169.359 133.955 169.541C134.962 169.805 134.955 171.833 133.943 172.464C133.358 172.83 133.207 173.323 133.207 174.862V176.799H134.68H136.154V174.221C136.154 172.368 136.287 171.642 136.626 171.642C136.98 171.642 137.062 172.292 136.953 174.221L136.807 176.799H138.322H139.838L139.841 170.813C139.843 167.521 139.884 158.03 139.933 149.723L140.022 134.619L148 134.52L155.978 134.421L155.981 152.479C155.983 164.897 155.862 170.537 155.595 170.537C155.174 170.537 154.235 169.444 154.216 168.932C154.21 168.758 154.453 168.711 154.757 168.828C155.094 168.957 155.31 168.828 155.31 168.499C155.31 168.178 154.961 167.958 154.451 167.958C153.912 167.958 153.409 167.615 153.1 167.037C152.643 166.185 151.938 165.756 152.038 166.392C152.229 167.601 151.919 171.273 151.626 171.273C151.168 171.273 151.161 168.634 151.615 166.679C151.896 165.465 151.827 165.011 151.207 164.008C150.797 163.344 150.315 162.801 150.137 162.801C149.659 162.801 148.681 166.327 148.426 168.971C148.304 170.238 148.062 171.273 147.889 171.273C147.716 171.273 147.574 170.975 147.574 170.61C147.574 170.246 147.384 169.758 147.153 169.527C146.84 169.213 146.837 168.56 147.143 166.966C147.521 164.993 147.565 164.259 147.523 160.59C147.514 159.881 147.517 157.411 147.528 155.101C147.539 152.791 147.462 150.761 147.355 150.589C147.249 150.416 146.592 150.275 145.894 150.275H144.627V163.537V176.799H146.126H147.625L147.535 174.334C147.476 172.704 147.592 171.82 147.878 171.725C148.182 171.623 148.31 172.357 148.31 174.19V176.799H149.784H151.258V174.19C151.258 172.357 151.386 171.623 151.69 171.725C151.976 171.82 152.092 172.704 152.033 174.334L151.944 176.799H153.442H154.941V174.036C154.941 171.934 155.063 171.273 155.449 171.273C155.838 171.273 155.946 171.898 155.91 173.944L155.862 176.615H157.336H158.809L158.927 171.273L159.045 165.932L159.664 167.59C160.149 168.889 160.258 170.225 160.169 173.76L160.055 178.273H125.265H90.4739L90.4639 160.867C90.4588 151.293 90.4484 141.554 90.4415 139.224C90.4345 136.894 90.4389 134.863 90.4514 134.711C90.4636 134.559 96.6904 134.435 104.288 134.435H118.103V145.855ZM160.088 146.548C160.097 155.981 159.988 158.926 159.596 159.859L159.093 161.056L158.91 158.889C158.81 157.697 158.7 151.708 158.666 145.579C158.605 134.662 158.619 134.435 159.34 134.435C160.061 134.435 160.077 134.687 160.088 146.548ZM78.6855 136.952C78.6855 138.134 78.5776 139.209 78.4457 139.341C78.2022 139.585 73.8965 137.38 73.8965 137.012C73.8965 136.817 77.8544 134.912 78.4092 134.839C78.5614 134.819 78.6855 135.77 78.6855 136.952ZM70.7321 139.526C68.9984 140.784 66.8972 143.117 66.8972 143.784C66.8972 144.049 68.1596 143.041 69.7024 141.542C72.6782 138.652 73.1137 137.799 70.7321 139.526ZM140.924 143.715C140.913 143.777 140.841 151.256 140.762 160.334L140.62 176.839L142.163 176.727L143.706 176.615V160.222V143.829L142.324 143.715C141.565 143.652 140.934 143.652 140.924 143.715ZM186.254 144.993C186.254 146.691 189.297 150.281 191.859 151.605C193.869 152.645 193.696 152.393 188.557 146.786C186.888 144.966 186.254 144.472 186.254 144.993ZM121.745 152.394C121.723 156.395 121.654 160.167 121.593 160.774C121.499 161.712 121.728 162.061 123.108 163.072L124.734 164.264V154.691V145.118H123.26H121.787L121.745 152.394ZM162.151 146.802C161.247 147.706 161.39 150.152 162.377 150.68C163.061 151.047 163.28 150.988 163.85 150.284C164.671 149.27 164.705 148.125 163.946 147.042C163.266 146.071 162.927 146.026 162.151 146.802ZM163.414 148.618C163.414 149.518 163.248 149.907 162.862 149.907C162.298 149.907 162.057 148.072 162.555 147.574C163.105 147.023 163.414 147.399 163.414 148.618ZM130.467 150.257C129.391 150.966 129.385 150.992 129.433 154.399C129.459 156.285 129.49 160.198 129.501 163.095L129.523 168.362L130.716 168.864C131.373 169.14 132.036 169.288 132.19 169.193C132.344 169.097 132.47 164.637 132.47 159.279C132.47 148.723 132.511 148.909 130.467 150.257ZM184.412 150.572C184.412 151.98 186.383 155.12 188.387 156.906C189.524 157.919 190.695 158.748 190.99 158.748C191.458 158.748 191.458 158.667 190.988 158.104C190.693 157.749 189.615 156.464 188.592 155.249C187.57 154.033 186.273 152.334 185.709 151.473C184.562 149.722 184.412 149.618 184.412 150.572ZM148.312 154.051L148.313 157.827L149.785 157.845L151.258 157.863V154.069V150.275H149.784H148.31L148.312 154.051ZM173.9 152.331C172.95 153.056 170.327 154.85 168.07 156.318C165.813 157.786 163.718 159.29 163.414 159.661C162.498 160.779 162.709 163.827 163.857 166.038C165.943 170.06 168.49 172.379 170.82 172.379C173.639 172.379 179.475 168.264 181.23 165.039C183.439 160.981 182.701 156.358 179.279 152.807C177.156 150.605 176.264 150.526 173.9 152.331ZM126.852 152.274L125.471 152.616L125.477 158.721L125.484 164.827L126.973 166.063C127.792 166.743 128.493 167.241 128.532 167.169C128.57 167.096 128.519 163.639 128.418 159.485L128.233 151.933L126.852 152.274ZM178.478 153.417C182.227 157.687 182.351 162.499 178.811 166.339C176.848 168.47 172.972 170.928 171.205 171.166C169.888 171.342 169.597 171.215 168.032 169.772C165.086 167.057 163.292 163.018 164.138 161.006C164.398 160.387 166.104 159.01 168.87 157.187C171.248 155.619 173.77 153.844 174.475 153.242C176.169 151.793 177.087 151.834 178.478 153.417ZM98.6587 165.287L98.7626 176.615L100.328 176.728L101.894 176.842V174.242C101.894 172.754 102.052 171.642 102.262 171.642C102.473 171.642 102.631 172.747 102.631 174.221V176.799H104.104H105.578V174.079C105.578 171.613 105.504 171.34 104.793 171.154C104.067 170.964 104.053 170.904 104.608 170.348C105.558 169.399 105.353 168.695 104.127 168.695C103.182 168.695 103.031 168.842 102.93 169.864C102.867 170.506 102.608 171.101 102.354 171.184C102.005 171.298 101.876 170.235 101.819 166.791C101.778 164.293 101.708 161.005 101.663 159.485C101.618 157.966 101.569 156.101 101.553 155.341C101.526 153.977 101.506 153.959 100.04 153.959H98.5552L98.6587 165.287ZM110.367 162.064C110.367 165.711 110.444 168.695 110.538 168.695C110.633 168.695 111.296 168.416 112.012 168.074L113.314 167.453V161.443V155.433H111.84H110.367V162.064ZM152.123 157.183C152.233 158.145 152.429 159.522 152.559 160.243C152.732 161.2 152.64 161.681 152.219 162.031C151.708 162.454 151.834 162.759 153.313 164.681C154.232 165.876 155.016 166.853 155.055 166.853C155.094 166.854 155.076 164.284 155.015 161.143L154.905 155.433H153.414H151.923L152.123 157.183ZM120.889 158.856C121.028 159.22 121.234 159.424 121.347 159.311C121.461 159.197 121.348 158.9 121.096 158.65C120.732 158.289 120.69 158.331 120.889 158.856ZM118.326 163.015C118.203 163.335 118.103 166.578 118.103 170.221V176.844L119.484 176.729L120.866 176.615L121.05 170.047C121.151 166.435 121.102 163.245 120.939 162.956C120.536 162.239 118.608 162.283 118.326 163.015ZM121.681 167.866C121.724 170.044 121.766 172.945 121.773 174.313L121.787 176.799H123.26H124.734V171.485V166.17L123.36 165.038C122.605 164.415 121.901 163.906 121.795 163.906C121.689 163.906 121.638 165.688 121.681 167.866ZM115.971 166.3C115.329 167.212 114.633 167.958 114.427 167.958C114.192 167.958 114.051 169.618 114.051 172.379V176.799H115.692H117.333L117.335 170.721C117.337 167.378 117.293 164.643 117.239 164.643C117.184 164.643 116.614 165.389 115.971 166.3ZM125.699 167.149C125.598 167.313 125.507 169.552 125.497 172.124L125.479 176.799H126.949H128.418V175.196C128.418 174.313 128.511 172.614 128.625 171.42L128.833 169.247L127.359 168.048C126.548 167.389 125.801 166.984 125.699 167.149ZM112.231 168.732C111.737 168.929 110.894 168.995 110.359 168.877C109.126 168.606 106.3 169.226 105.914 169.853C105.541 170.455 106.202 171.273 107.062 171.273C107.522 171.273 107.665 171.068 107.539 170.584C107.407 170.082 107.607 169.833 108.276 169.665C108.78 169.538 109.458 169.333 109.781 169.209C110.104 169.085 109.871 169.517 109.262 170.168C108.654 170.819 108.156 171.571 108.156 171.839C108.156 172.108 107.784 172.38 107.328 172.445C106.593 172.55 106.486 172.804 106.388 174.681L106.278 176.799H107.753H109.228L109.337 174.342C109.406 172.786 109.615 171.829 109.906 171.732C110.246 171.62 110.367 172.267 110.367 174.19V176.799H111.84H113.314V172.563C113.314 170.233 113.272 168.337 113.222 168.35C113.171 168.362 112.725 168.535 112.231 168.732ZM201.761 169.546C203.768 170.599 206.504 174.097 207.627 177.048C208.615 179.641 208.978 183.577 208.393 185.348C207.636 187.643 205.952 189.852 203.863 191.29C201.522 192.903 194.331 195.77 193.994 195.225C193.865 195.016 192.032 195.486 189.554 196.365C180.554 199.557 179.617 199.74 177.282 198.764C172.603 196.809 169.954 189.814 172.308 185.627C172.876 184.616 175.289 182.313 179.376 178.88C187.46 172.091 189.535 170.594 192.275 169.576C195.471 168.388 199.528 168.375 201.761 169.546ZM129.293 171.32C129.419 171.953 129.523 173.455 129.523 174.657V176.844L130.904 176.729C131.729 176.661 132.271 176.429 132.249 176.155C132.229 175.902 132.187 174.985 132.157 174.119C132.115 172.937 131.83 172.246 131.017 171.356C129.613 169.819 128.99 169.806 129.293 171.32ZM132.225 170.746C132.103 171.063 132.164 171.483 132.359 171.679C132.888 172.208 133.943 171.666 133.943 170.866C133.943 170.002 132.548 169.905 132.225 170.746ZM91.2106 174.036V176.799H92.6842H94.1577V174.221C94.1577 172.747 94.3158 171.642 94.5261 171.642C94.7365 171.642 94.8945 172.747 94.8945 174.221V176.799H96.3389H97.7834L97.9046 174.036L98.0258 171.272L94.6182 171.273L91.2106 171.273V174.036ZM162.014 176.505C161.39 177.129 161.456 179.928 162.107 180.468C163.039 181.242 163.918 180.757 164.268 179.277C164.781 177.108 163.27 175.249 162.014 176.505ZM163.354 178.662C163.165 179.952 162.309 180.011 162.309 178.733C162.309 178.142 162.423 177.546 162.561 177.407C162.986 176.982 163.484 177.771 163.354 178.662ZM188.465 178.103C188.465 179.793 194.129 185.993 194.935 185.187C195.115 185.007 188.969 177.904 188.633 177.904C188.54 177.904 188.465 177.994 188.465 178.103ZM178.474 182.13C173.78 185.322 173.541 185.615 173.561 188.167C173.573 189.804 173.84 190.738 174.819 192.566C176.798 196.263 178.796 197.137 181.781 195.613C183.495 194.74 185.68 192.372 186.43 190.577C187.192 188.754 187.131 185.431 186.303 183.614C185.338 181.497 183.75 179.746 182.795 179.746C182.346 179.746 180.402 180.819 178.474 182.13ZM184.711 183.062C185.828 184.91 185.925 185.302 185.81 187.527C185.657 190.465 184.417 192.55 181.854 194.178C179.524 195.658 178.492 195.552 176.876 193.663C174.857 191.305 174.016 187.736 175.107 186.157C175.807 185.144 182.085 180.866 182.752 180.947C183.199 181.001 183.967 181.83 184.711 183.062ZM192.959 201.733C189.778 204.709 186.383 207.899 185.414 208.822L183.653 210.501L183.756 205.561L183.86 200.621L185.469 200.085C187.037 199.563 188.037 199.669 190.529 200.626C191.476 200.989 191.056 200.132 190.066 199.681C188.811 199.109 189.241 198.761 191.906 198.19C193.09 197.937 194.914 197.425 195.959 197.053C197.003 196.682 198.057 196.365 198.3 196.351C198.544 196.336 196.14 198.758 192.959 201.733ZM134.523 204.609C137.39 206.289 138.731 210.425 137.424 213.558C135.152 219.006 127.843 219.854 124.378 215.071C122.224 212.096 122.567 208.418 125.249 205.736C127.809 203.175 131.344 202.745 134.523 204.609ZM128.233 204.982C125.289 206.023 123.492 209.394 124.352 212.265C126.063 217.977 133.504 218.831 136.162 213.622C137.974 210.069 136.09 205.898 132.182 204.813C130.439 204.329 130.031 204.346 128.233 204.982ZM60.8847 224.984C64.0643 227.91 69.215 229.973 80.3882 232.796C88.3892 234.817 91.9183 236.168 95.7691 238.681C100.356 241.676 107.556 249.281 111.551 255.352C113.814 258.789 114.343 258.556 112.382 254.986C109.27 249.319 101.656 240.971 96.5825 237.661C92.4259 234.95 89.0703 233.666 80.8958 231.657C69.7798 228.927 64.9963 227.245 61.0479 224.675L59.3452 223.567L60.8847 224.984ZM144.719 227.176C138.185 227.232 127.492 227.232 120.958 227.176C114.424 227.119 119.77 227.073 132.838 227.073C145.907 227.073 151.253 227.119 144.719 227.176ZM114.79 259.246C114.791 259.387 115.382 259.903 116.103 260.395C118.041 261.714 120.959 261.87 123.291 260.777C124.286 260.311 125.035 259.865 124.957 259.786C124.877 259.707 123.87 259.917 122.716 260.252C120.403 260.924 118.881 260.787 116.353 259.678C115.492 259.3 114.788 259.106 114.79 259.246Z" fill="black"/>
</svg>
